<mxfile host="app.diagrams.net" modified="2023-06-18T07:20:11.420Z" agent="Mozilla/5.0 (Windows NT 10.0; Win64; x64; rv:109.0) Gecko/20100101 Firefox/115.0" etag="d4RrDqEdZiiugnvbW8Ov" version="21.4.0" type="github">
  <diagram name="Page-1" id="bfe91b75-5d2c-26a0-9c1d-138518896778">
    <mxGraphModel dx="2868" dy="1548" grid="1" gridSize="10" guides="1" tooltips="1" connect="1" arrows="1" fold="1" page="1" pageScale="1" pageWidth="1100" pageHeight="850" background="none" math="0" shadow="0">
      <root>
        <mxCell id="0" />
        <mxCell id="1" parent="0" />
        <mxCell id="dvJdTB3-3XcjDnjQ-2kB-53" value="" style="endArrow=classic;html=1;rounded=0;" edge="1" parent="1" target="dvJdTB3-3XcjDnjQ-2kB-13">
          <mxGeometry width="50" height="50" relative="1" as="geometry">
            <mxPoint x="840" y="120" as="sourcePoint" />
            <mxPoint x="860" y="360" as="targetPoint" />
          </mxGeometry>
        </mxCell>
        <mxCell id="7c3789c024ecab99-79" value="&lt;div&gt;VR Computer&lt;/div&gt;&lt;div&gt;&lt;br&gt;&lt;/div&gt;" style="rounded=1;whiteSpace=wrap;html=1;shadow=0;comic=0;strokeColor=#036897;strokeWidth=2;fillColor=none;fontFamily=Verdana;fontSize=28;fontColor=#6881B3;align=center;arcSize=11;verticalAlign=top;" parent="1" vertex="1">
          <mxGeometry x="78" y="462" width="1065" height="420" as="geometry" />
        </mxCell>
        <mxCell id="7c3789c024ecab99-78" value="&lt;div&gt;VJ Computer&lt;/div&gt;&lt;div&gt;&lt;br&gt;&lt;/div&gt;" style="rounded=1;whiteSpace=wrap;html=1;shadow=0;comic=0;strokeColor=#036897;strokeWidth=2;fillColor=none;fontFamily=Verdana;fontSize=28;fontColor=#6881B3;align=center;arcSize=11;verticalAlign=top;" parent="1" vertex="1">
          <mxGeometry x="75" y="20" width="1065" height="420" as="geometry" />
        </mxCell>
        <mxCell id="7c3789c024ecab99-18" style="edgeStyle=orthogonalEdgeStyle;html=1;labelBackgroundColor=none;endArrow=none;endFill=0;strokeWidth=2;fontFamily=Verdana;fontSize=15;fontColor=#036897;exitX=1;exitY=0.5;exitDx=0;exitDy=0;entryX=0;entryY=0.364;entryDx=0;entryDy=0;entryPerimeter=0;" parent="1" source="dvJdTB3-3XcjDnjQ-2kB-46" target="dvJdTB3-3XcjDnjQ-2kB-2" edge="1">
          <mxGeometry relative="1" as="geometry">
            <mxPoint x="1620" y="762" as="targetPoint" />
            <Array as="points">
              <mxPoint x="1310" y="350" />
              <mxPoint x="1340" y="350" />
              <mxPoint x="1340" y="650" />
              <mxPoint x="1500" y="650" />
            </Array>
            <mxPoint x="770" y="192.00000000000023" as="sourcePoint" />
          </mxGeometry>
        </mxCell>
        <mxCell id="7c3789c024ecab99-50" style="edgeStyle=orthogonalEdgeStyle;html=1;labelBackgroundColor=none;endArrow=none;endFill=0;strokeWidth=2;fontFamily=Verdana;fontSize=15;fontColor=#036897;entryX=0;entryY=0.5;entryDx=0;entryDy=0;entryPerimeter=0;exitX=1;exitY=0.5;exitDx=0;exitDy=0;" parent="1" source="dvJdTB3-3XcjDnjQ-2kB-58" target="dvJdTB3-3XcjDnjQ-2kB-2" edge="1">
          <mxGeometry relative="1" as="geometry">
            <mxPoint x="1620" y="762" as="targetPoint" />
            <mxPoint x="1280" y="650" as="sourcePoint" />
            <Array as="points">
              <mxPoint x="1290" y="650" />
              <mxPoint x="1500" y="650" />
            </Array>
          </mxGeometry>
        </mxCell>
        <mxCell id="7c3789c024ecab99-53" value="Internet" style="html=1;fillColor=#CCCCCC;strokeColor=#6881B3;gradientColor=none;gradientDirection=north;strokeWidth=2;shape=mxgraph.networks.cloud;fontColor=#6881B3;rounded=0;shadow=0;comic=0;align=center;fontSize=28;" parent="1" vertex="1">
          <mxGeometry x="1810" y="559" width="330" height="140" as="geometry" />
        </mxCell>
        <mxCell id="7c3789c024ecab99-56" style="edgeStyle=none;html=1;labelBackgroundColor=none;endArrow=none;endFill=0;strokeWidth=2;fontFamily=Verdana;fontSize=28;fontColor=#6881B3;exitX=0.694;exitY=0.265;exitDx=0;exitDy=0;exitPerimeter=0;" parent="1" source="dvJdTB3-3XcjDnjQ-2kB-2" target="7c3789c024ecab99-53" edge="1">
          <mxGeometry relative="1" as="geometry">
            <mxPoint x="1670" y="470" as="sourcePoint" />
          </mxGeometry>
        </mxCell>
        <mxCell id="7c3789c024ecab99-77" style="edgeStyle=none;html=1;labelBackgroundColor=none;endArrow=none;endFill=0;strokeWidth=2;fontFamily=Verdana;fontSize=28;fontColor=#6881B3;" parent="1" source="dvJdTB3-3XcjDnjQ-2kB-5" target="7c3789c024ecab99-76" edge="1">
          <mxGeometry relative="1" as="geometry">
            <mxPoint x="1480" y="150" as="sourcePoint" />
          </mxGeometry>
        </mxCell>
        <mxCell id="dvJdTB3-3XcjDnjQ-2kB-22" value="&lt;font style=&quot;font-size: 16px;&quot;&gt;DJ Feed (Dante)&lt;br&gt;&lt;/font&gt;" style="edgeLabel;html=1;align=center;verticalAlign=middle;resizable=0;points=[];" vertex="1" connectable="0" parent="7c3789c024ecab99-77">
          <mxGeometry x="-0.1269" y="-1" relative="1" as="geometry">
            <mxPoint as="offset" />
          </mxGeometry>
        </mxCell>
        <mxCell id="7c3789c024ecab99-76" value="&lt;div&gt;Dante Network&lt;/div&gt;" style="html=1;fillColor=#CCCCCC;strokeColor=#6881B3;gradientColor=none;gradientDirection=north;strokeWidth=2;shape=mxgraph.networks.cloud;fontColor=#6881B3;rounded=0;shadow=0;comic=0;align=center;fontSize=28;" parent="1" vertex="1">
          <mxGeometry x="1810" y="200" width="330" height="140" as="geometry" />
        </mxCell>
        <mxCell id="dvJdTB3-3XcjDnjQ-2kB-1" value="Lighting Network" style="html=1;fillColor=#CCCCCC;strokeColor=#6881B3;gradientColor=none;gradientDirection=north;strokeWidth=2;shape=mxgraph.networks.cloud;fontColor=#6881B3;rounded=0;shadow=0;comic=0;align=center;fontSize=28;" vertex="1" parent="1">
          <mxGeometry x="1810" y="20" width="330" height="140" as="geometry" />
        </mxCell>
        <mxCell id="dvJdTB3-3XcjDnjQ-2kB-2" value="&lt;font style=&quot;font-size: 36px;&quot;&gt;VJ Router&lt;br&gt;&lt;/font&gt;" style="fontColor=#0066CC;verticalAlign=top;verticalLabelPosition=bottom;labelPosition=center;align=center;html=1;fillColor=#CCCCCC;strokeColor=#6881B3;gradientColor=none;gradientDirection=north;strokeWidth=2;shape=mxgraph.networks.router;rounded=0;shadow=0;comic=0;" vertex="1" parent="1">
          <mxGeometry x="1500" y="611" width="240" height="88" as="geometry" />
        </mxCell>
        <mxCell id="dvJdTB3-3XcjDnjQ-2kB-4" value="&lt;div style=&quot;font-size: 20px;&quot;&gt;USB Ethernet Dongle &lt;br style=&quot;font-size: 20px;&quot;&gt;&lt;/div&gt;" style="rounded=0;whiteSpace=wrap;html=1;fontSize=20;" vertex="1" parent="1">
          <mxGeometry x="1190" y="20" width="120" height="85" as="geometry" />
        </mxCell>
        <mxCell id="dvJdTB3-3XcjDnjQ-2kB-5" value="&lt;div style=&quot;font-size: 20px;&quot;&gt;USB Ethernet Dongle or USB DI&lt;/div&gt;" style="rounded=0;whiteSpace=wrap;html=1;fontSize=20;" vertex="1" parent="1">
          <mxGeometry x="1190" y="122.5" width="120" height="110" as="geometry" />
        </mxCell>
        <mxCell id="dvJdTB3-3XcjDnjQ-2kB-7" value="" style="endArrow=none;html=1;rounded=0;entryX=0.096;entryY=0.5;entryDx=0;entryDy=0;entryPerimeter=0;" edge="1" parent="1" source="dvJdTB3-3XcjDnjQ-2kB-4" target="dvJdTB3-3XcjDnjQ-2kB-1">
          <mxGeometry width="50" height="50" relative="1" as="geometry">
            <mxPoint x="1420" y="670" as="sourcePoint" />
            <mxPoint x="1470" y="620" as="targetPoint" />
          </mxGeometry>
        </mxCell>
        <mxCell id="dvJdTB3-3XcjDnjQ-2kB-23" value="&lt;div&gt;&lt;font style=&quot;font-size: 16px;&quot;&gt;Color Data (Artnet)&lt;/font&gt;&lt;/div&gt;" style="edgeLabel;html=1;align=center;verticalAlign=middle;resizable=0;points=[];" vertex="1" connectable="0" parent="dvJdTB3-3XcjDnjQ-2kB-7">
          <mxGeometry x="-0.1853" y="3" relative="1" as="geometry">
            <mxPoint as="offset" />
          </mxGeometry>
        </mxCell>
        <mxCell id="dvJdTB3-3XcjDnjQ-2kB-10" value="&lt;div style=&quot;font-size: 13px;&quot;&gt;&lt;font style=&quot;font-size: 20px;&quot;&gt;Resolume&lt;/font&gt;&lt;/div&gt;" style="swimlane;whiteSpace=wrap;html=1;" vertex="1" parent="1">
          <mxGeometry x="140" y="122.5" width="200" height="200" as="geometry" />
        </mxCell>
        <mxCell id="dvJdTB3-3XcjDnjQ-2kB-11" value="&lt;div style=&quot;font-size: 20px;&quot;&gt;&lt;font style=&quot;font-size: 20px;&quot;&gt;TouchDesigner&lt;br&gt;&lt;/font&gt;&lt;/div&gt;" style="swimlane;whiteSpace=wrap;html=1;" vertex="1" parent="1">
          <mxGeometry x="500" y="122.5" width="200" height="200" as="geometry" />
        </mxCell>
        <mxCell id="dvJdTB3-3XcjDnjQ-2kB-13" value="&lt;div style=&quot;font-size: 13px;&quot;&gt;&lt;font style=&quot;font-size: 20px;&quot;&gt;OBS&lt;/font&gt;&lt;/div&gt;" style="swimlane;whiteSpace=wrap;html=1;" vertex="1" parent="1">
          <mxGeometry x="740" y="280" width="120" height="107.5" as="geometry" />
        </mxCell>
        <mxCell id="dvJdTB3-3XcjDnjQ-2kB-14" value="" style="endArrow=classic;html=1;rounded=0;entryX=0;entryY=0.5;entryDx=0;entryDy=0;" edge="1" parent="1" source="dvJdTB3-3XcjDnjQ-2kB-13" target="dvJdTB3-3XcjDnjQ-2kB-40">
          <mxGeometry width="50" height="50" relative="1" as="geometry">
            <mxPoint x="970" y="230" as="sourcePoint" />
            <mxPoint x="960" y="343.5" as="targetPoint" />
          </mxGeometry>
        </mxCell>
        <mxCell id="dvJdTB3-3XcjDnjQ-2kB-41" value="&lt;div style=&quot;font-size: 16px;&quot;&gt;&lt;font style=&quot;font-size: 16px;&quot;&gt;VR Feed&lt;/font&gt;&lt;/div&gt;&lt;div style=&quot;font-size: 16px;&quot;&gt;&lt;font style=&quot;font-size: 16px;&quot;&gt;(RTMP)&lt;/font&gt;&lt;/div&gt;" style="edgeLabel;html=1;align=center;verticalAlign=middle;resizable=0;points=[];" vertex="1" connectable="0" parent="dvJdTB3-3XcjDnjQ-2kB-14">
          <mxGeometry x="-0.3579" y="-2" relative="1" as="geometry">
            <mxPoint x="18" y="-4" as="offset" />
          </mxGeometry>
        </mxCell>
        <mxCell id="dvJdTB3-3XcjDnjQ-2kB-16" value="" style="endArrow=classic;html=1;rounded=0;entryX=0;entryY=0.25;entryDx=0;entryDy=0;" edge="1" parent="1" target="dvJdTB3-3XcjDnjQ-2kB-46">
          <mxGeometry width="50" height="50" relative="1" as="geometry">
            <mxPoint x="1050" y="360" as="sourcePoint" />
            <mxPoint x="790" y="340" as="targetPoint" />
          </mxGeometry>
        </mxCell>
        <mxCell id="dvJdTB3-3XcjDnjQ-2kB-42" value="&lt;div style=&quot;font-size: 16px;&quot;&gt;&lt;font style=&quot;font-size: 16px;&quot;&gt;VR Feed&lt;/font&gt;&lt;/div&gt;&lt;div style=&quot;font-size: 16px;&quot;&gt;&lt;font style=&quot;font-size: 16px;&quot;&gt;(RTSP)&lt;/font&gt;&lt;/div&gt;" style="edgeLabel;html=1;align=center;verticalAlign=middle;resizable=0;points=[];" vertex="1" connectable="0" parent="dvJdTB3-3XcjDnjQ-2kB-16">
          <mxGeometry x="-0.3624" relative="1" as="geometry">
            <mxPoint x="12" as="offset" />
          </mxGeometry>
        </mxCell>
        <mxCell id="dvJdTB3-3XcjDnjQ-2kB-17" value="&lt;div style=&quot;font-size: 13px;&quot;&gt;&lt;font style=&quot;font-size: 20px;&quot;&gt;CamLink 4k&lt;/font&gt;&lt;/div&gt;" style="rounded=0;whiteSpace=wrap;html=1;" vertex="1" parent="1">
          <mxGeometry x="1190" y="250" width="120" height="60" as="geometry" />
        </mxCell>
        <mxCell id="dvJdTB3-3XcjDnjQ-2kB-18" value="&lt;div&gt;Video World&lt;/div&gt;" style="html=1;fillColor=#CCCCCC;strokeColor=#6881B3;gradientColor=none;gradientDirection=north;strokeWidth=2;shape=mxgraph.networks.cloud;fontColor=#6881B3;rounded=0;shadow=0;comic=0;align=center;fontSize=28;" vertex="1" parent="1">
          <mxGeometry x="1810" y="380" width="330" height="140" as="geometry" />
        </mxCell>
        <mxCell id="dvJdTB3-3XcjDnjQ-2kB-19" value="" style="endArrow=classic;html=1;rounded=0;exitX=0;exitY=0.5;exitDx=0;exitDy=0;entryX=1;entryY=0;entryDx=0;entryDy=0;" edge="1" parent="1" source="dvJdTB3-3XcjDnjQ-2kB-17" target="dvJdTB3-3XcjDnjQ-2kB-13">
          <mxGeometry width="50" height="50" relative="1" as="geometry">
            <mxPoint x="1080" y="300" as="sourcePoint" />
            <mxPoint x="1130" y="250" as="targetPoint" />
          </mxGeometry>
        </mxCell>
        <mxCell id="dvJdTB3-3XcjDnjQ-2kB-26" value="&lt;div&gt;&lt;font style=&quot;font-size: 16px;&quot;&gt;Camera Feed&lt;/font&gt;&lt;/div&gt;&lt;div&gt;&lt;font style=&quot;font-size: 16px;&quot;&gt;(Caputure)&lt;/font&gt;&lt;/div&gt;" style="edgeLabel;html=1;align=center;verticalAlign=middle;resizable=0;points=[];" vertex="1" connectable="0" parent="dvJdTB3-3XcjDnjQ-2kB-19">
          <mxGeometry x="0.1353" relative="1" as="geometry">
            <mxPoint as="offset" />
          </mxGeometry>
        </mxCell>
        <mxCell id="dvJdTB3-3XcjDnjQ-2kB-20" value="" style="endArrow=classic;html=1;rounded=0;exitX=0.155;exitY=0.396;exitDx=0;exitDy=0;exitPerimeter=0;" edge="1" parent="1" source="dvJdTB3-3XcjDnjQ-2kB-18" target="dvJdTB3-3XcjDnjQ-2kB-17">
          <mxGeometry width="50" height="50" relative="1" as="geometry">
            <mxPoint x="1080" y="300" as="sourcePoint" />
            <mxPoint x="1130" y="250" as="targetPoint" />
          </mxGeometry>
        </mxCell>
        <mxCell id="dvJdTB3-3XcjDnjQ-2kB-21" value="&lt;font style=&quot;font-size: 16px;&quot;&gt;Camera Feed (SDI)&lt;br&gt;&lt;/font&gt;" style="edgeLabel;html=1;align=center;verticalAlign=middle;resizable=0;points=[];" vertex="1" connectable="0" parent="dvJdTB3-3XcjDnjQ-2kB-20">
          <mxGeometry x="0.2373" y="3" relative="1" as="geometry">
            <mxPoint y="-1" as="offset" />
          </mxGeometry>
        </mxCell>
        <mxCell id="dvJdTB3-3XcjDnjQ-2kB-24" value="" style="endArrow=classic;html=1;rounded=0;exitX=1;exitY=0.5;exitDx=0;exitDy=0;entryX=0.5;entryY=0;entryDx=0;entryDy=0;" edge="1" parent="1" source="dvJdTB3-3XcjDnjQ-2kB-11" target="dvJdTB3-3XcjDnjQ-2kB-13">
          <mxGeometry width="50" height="50" relative="1" as="geometry">
            <mxPoint x="1080" y="300" as="sourcePoint" />
            <mxPoint x="1130" y="250" as="targetPoint" />
          </mxGeometry>
        </mxCell>
        <mxCell id="dvJdTB3-3XcjDnjQ-2kB-25" value="&lt;font style=&quot;font-size: 16px;&quot;&gt;Clock Feed&lt;br&gt;(Spout)&lt;br&gt;&lt;/font&gt;" style="edgeLabel;html=1;align=center;verticalAlign=middle;resizable=0;points=[];" vertex="1" connectable="0" parent="dvJdTB3-3XcjDnjQ-2kB-24">
          <mxGeometry x="0.3004" relative="1" as="geometry">
            <mxPoint x="-5" y="-20" as="offset" />
          </mxGeometry>
        </mxCell>
        <mxCell id="dvJdTB3-3XcjDnjQ-2kB-27" value="" style="endArrow=classic;html=1;rounded=0;exitX=0.75;exitY=1;exitDx=0;exitDy=0;entryX=0;entryY=0.5;entryDx=0;entryDy=0;" edge="1" parent="1" source="dvJdTB3-3XcjDnjQ-2kB-10" target="dvJdTB3-3XcjDnjQ-2kB-13">
          <mxGeometry width="50" height="50" relative="1" as="geometry">
            <mxPoint x="1080" y="300" as="sourcePoint" />
            <mxPoint x="800" y="380" as="targetPoint" />
            <Array as="points">
              <mxPoint x="290" y="350" />
            </Array>
          </mxGeometry>
        </mxCell>
        <mxCell id="dvJdTB3-3XcjDnjQ-2kB-28" value="&lt;div style=&quot;font-size: 12px;&quot;&gt;&lt;font style=&quot;font-size: 16px;&quot;&gt;Dancer Feed (Spout)&lt;/font&gt;&lt;/div&gt;" style="edgeLabel;html=1;align=center;verticalAlign=middle;resizable=0;points=[];" vertex="1" connectable="0" parent="dvJdTB3-3XcjDnjQ-2kB-27">
          <mxGeometry x="0.1623" y="-2" relative="1" as="geometry">
            <mxPoint x="1" as="offset" />
          </mxGeometry>
        </mxCell>
        <mxCell id="dvJdTB3-3XcjDnjQ-2kB-29" value="" style="endArrow=classic;html=1;rounded=0;entryX=0;entryY=0.75;entryDx=0;entryDy=0;" edge="1" parent="1" target="dvJdTB3-3XcjDnjQ-2kB-13">
          <mxGeometry width="50" height="50" relative="1" as="geometry">
            <mxPoint x="210" y="320" as="sourcePoint" />
            <mxPoint x="1130" y="250" as="targetPoint" />
            <Array as="points">
              <mxPoint x="220" y="380" />
            </Array>
          </mxGeometry>
        </mxCell>
        <mxCell id="dvJdTB3-3XcjDnjQ-2kB-30" value="&lt;font style=&quot;font-size: 16px;&quot;&gt;VJ Feed (Spout)&lt;br&gt;&lt;/font&gt;" style="edgeLabel;html=1;align=center;verticalAlign=middle;resizable=0;points=[];" vertex="1" connectable="0" parent="dvJdTB3-3XcjDnjQ-2kB-29">
          <mxGeometry x="0.0327" y="-4" relative="1" as="geometry">
            <mxPoint as="offset" />
          </mxGeometry>
        </mxCell>
        <mxCell id="dvJdTB3-3XcjDnjQ-2kB-31" value="" style="endArrow=classic;html=1;rounded=0;entryX=1;entryY=0.5;entryDx=0;entryDy=0;" edge="1" parent="1" target="dvJdTB3-3XcjDnjQ-2kB-10">
          <mxGeometry width="50" height="50" relative="1" as="geometry">
            <mxPoint x="510" y="232.5" as="sourcePoint" />
            <mxPoint x="350" y="232.5" as="targetPoint" />
          </mxGeometry>
        </mxCell>
        <mxCell id="dvJdTB3-3XcjDnjQ-2kB-32" value="&lt;div&gt;&lt;font style=&quot;font-size: 16px;&quot;&gt;Visualizers&lt;/font&gt;&lt;/div&gt;&lt;div&gt;&lt;font style=&quot;font-size: 16px;&quot;&gt;(Spout)&lt;/font&gt;&lt;/div&gt;" style="edgeLabel;html=1;align=center;verticalAlign=middle;resizable=0;points=[];" vertex="1" connectable="0" parent="dvJdTB3-3XcjDnjQ-2kB-31">
          <mxGeometry x="-0.3238" y="3" relative="1" as="geometry">
            <mxPoint x="-26" y="5" as="offset" />
          </mxGeometry>
        </mxCell>
        <mxCell id="dvJdTB3-3XcjDnjQ-2kB-34" value="&lt;font style=&quot;font-size: 20px;&quot;&gt;HDMI + Decimator&lt;/font&gt;" style="rounded=0;whiteSpace=wrap;html=1;" vertex="1" parent="1">
          <mxGeometry x="1190" y="395" width="120" height="60" as="geometry" />
        </mxCell>
        <mxCell id="dvJdTB3-3XcjDnjQ-2kB-35" value="" style="endArrow=classic;html=1;rounded=0;exitX=1;exitY=0.5;exitDx=0;exitDy=0;entryX=-0.014;entryY=0.671;entryDx=0;entryDy=0;entryPerimeter=0;" edge="1" parent="1" source="dvJdTB3-3XcjDnjQ-2kB-34" target="dvJdTB3-3XcjDnjQ-2kB-18">
          <mxGeometry width="50" height="50" relative="1" as="geometry">
            <mxPoint x="1080" y="470" as="sourcePoint" />
            <mxPoint x="1130" y="420" as="targetPoint" />
          </mxGeometry>
        </mxCell>
        <mxCell id="dvJdTB3-3XcjDnjQ-2kB-36" value="&lt;font style=&quot;font-size: 16px;&quot;&gt;VJ Feed (SDI)&lt;br&gt;&lt;/font&gt;" style="edgeLabel;html=1;align=center;verticalAlign=middle;resizable=0;points=[];" vertex="1" connectable="0" parent="dvJdTB3-3XcjDnjQ-2kB-35">
          <mxGeometry x="0.1556" y="2" relative="1" as="geometry">
            <mxPoint x="-1" as="offset" />
          </mxGeometry>
        </mxCell>
        <mxCell id="dvJdTB3-3XcjDnjQ-2kB-37" value="" style="endArrow=classic;html=1;rounded=0;entryX=0;entryY=0.5;entryDx=0;entryDy=0;" edge="1" parent="1" target="dvJdTB3-3XcjDnjQ-2kB-34">
          <mxGeometry width="50" height="50" relative="1" as="geometry">
            <mxPoint x="180" y="320" as="sourcePoint" />
            <mxPoint x="1130" y="420" as="targetPoint" />
            <Array as="points">
              <mxPoint x="180" y="430" />
            </Array>
          </mxGeometry>
        </mxCell>
        <mxCell id="dvJdTB3-3XcjDnjQ-2kB-38" value="&lt;font style=&quot;font-size: 16px;&quot;&gt;VJ Feed (Display)&lt;br&gt;&lt;/font&gt;" style="edgeLabel;html=1;align=center;verticalAlign=middle;resizable=0;points=[];" vertex="1" connectable="0" parent="dvJdTB3-3XcjDnjQ-2kB-37">
          <mxGeometry x="0.0512" y="-3" relative="1" as="geometry">
            <mxPoint as="offset" />
          </mxGeometry>
        </mxCell>
        <mxCell id="dvJdTB3-3XcjDnjQ-2kB-39" value="&lt;div style=&quot;font-size: 13px;&quot;&gt;&lt;font style=&quot;font-size: 20px;&quot;&gt;VRChat&lt;/font&gt;&lt;/div&gt;" style="swimlane;whiteSpace=wrap;html=1;" vertex="1" parent="1">
          <mxGeometry x="300" y="572" width="200" height="200" as="geometry" />
        </mxCell>
        <mxCell id="dvJdTB3-3XcjDnjQ-2kB-40" value="&lt;div&gt;MediaMTX&lt;/div&gt;" style="swimlane;whiteSpace=wrap;html=1;" vertex="1" parent="1">
          <mxGeometry x="960" y="307.5" width="90" height="80" as="geometry" />
        </mxCell>
        <mxCell id="dvJdTB3-3XcjDnjQ-2kB-44" value="" style="endArrow=classic;html=1;rounded=0;entryX=0.25;entryY=1;entryDx=0;entryDy=0;exitX=-0.005;exitY=0.622;exitDx=0;exitDy=0;exitPerimeter=0;" edge="1" parent="1" source="dvJdTB3-3XcjDnjQ-2kB-46" target="dvJdTB3-3XcjDnjQ-2kB-10">
          <mxGeometry width="50" height="50" relative="1" as="geometry">
            <mxPoint x="910" y="250" as="sourcePoint" />
            <mxPoint x="960" y="200" as="targetPoint" />
            <Array as="points">
              <mxPoint x="1050" y="400" />
              <mxPoint x="210" y="400" />
            </Array>
          </mxGeometry>
        </mxCell>
        <mxCell id="dvJdTB3-3XcjDnjQ-2kB-45" value="&lt;font style=&quot;font-size: 16px;&quot;&gt;Dancer Feed (NDI)&lt;/font&gt;" style="edgeLabel;html=1;align=center;verticalAlign=middle;resizable=0;points=[];" vertex="1" connectable="0" parent="dvJdTB3-3XcjDnjQ-2kB-44">
          <mxGeometry x="-0.0292" y="-4" relative="1" as="geometry">
            <mxPoint x="-1" as="offset" />
          </mxGeometry>
        </mxCell>
        <mxCell id="dvJdTB3-3XcjDnjQ-2kB-46" value="&lt;font style=&quot;font-size: 20px;&quot;&gt;Network Adapter&lt;br&gt;&lt;/font&gt;" style="rounded=0;whiteSpace=wrap;html=1;" vertex="1" parent="1">
          <mxGeometry x="1190" y="317.5" width="120" height="60" as="geometry" />
        </mxCell>
        <mxCell id="dvJdTB3-3XcjDnjQ-2kB-47" value="" style="endArrow=classic;html=1;rounded=0;" edge="1" parent="1">
          <mxGeometry width="50" height="50" relative="1" as="geometry">
            <mxPoint x="770" y="120" as="sourcePoint" />
            <mxPoint x="700" y="180" as="targetPoint" />
          </mxGeometry>
        </mxCell>
        <mxCell id="dvJdTB3-3XcjDnjQ-2kB-48" value="" style="endArrow=classic;html=1;rounded=0;exitX=0;exitY=0.25;exitDx=0;exitDy=0;" edge="1" parent="1" source="dvJdTB3-3XcjDnjQ-2kB-5">
          <mxGeometry width="50" height="50" relative="1" as="geometry">
            <mxPoint x="1110" y="40" as="sourcePoint" />
            <mxPoint x="340" y="150" as="targetPoint" />
            <Array as="points">
              <mxPoint x="570" y="90" />
            </Array>
          </mxGeometry>
        </mxCell>
        <mxCell id="dvJdTB3-3XcjDnjQ-2kB-50" value="&lt;font style=&quot;font-size: 16px;&quot;&gt;DJ Feed&lt;br&gt;(Dante Virtual Soundcard)&lt;br&gt;&lt;/font&gt;" style="edgeLabel;html=1;align=center;verticalAlign=middle;resizable=0;points=[];" vertex="1" connectable="0" parent="dvJdTB3-3XcjDnjQ-2kB-48">
          <mxGeometry x="-0.1798" y="4" relative="1" as="geometry">
            <mxPoint as="offset" />
          </mxGeometry>
        </mxCell>
        <mxCell id="dvJdTB3-3XcjDnjQ-2kB-49" value="" style="endArrow=classic;html=1;rounded=0;entryX=0.75;entryY=0;entryDx=0;entryDy=0;exitX=0;exitY=0.75;exitDx=0;exitDy=0;" edge="1" parent="1" source="dvJdTB3-3XcjDnjQ-2kB-4" target="dvJdTB3-3XcjDnjQ-2kB-10">
          <mxGeometry width="50" height="50" relative="1" as="geometry">
            <mxPoint x="1110" y="40" as="sourcePoint" />
            <mxPoint x="1160" y="-10" as="targetPoint" />
            <Array as="points">
              <mxPoint x="290" y="80" />
            </Array>
          </mxGeometry>
        </mxCell>
        <mxCell id="dvJdTB3-3XcjDnjQ-2kB-51" value="&lt;div style=&quot;font-size: 16px;&quot;&gt;&lt;font style=&quot;font-size: 16px;&quot;&gt;Color Data&lt;/font&gt;&lt;/div&gt;&lt;div style=&quot;font-size: 16px;&quot;&gt;&lt;font style=&quot;font-size: 16px;&quot;&gt;(Artnet)&lt;font style=&quot;font-size: 16px;&quot;&gt;&lt;br&gt;&lt;/font&gt;&lt;/font&gt;&lt;/div&gt;" style="edgeLabel;html=1;align=center;verticalAlign=middle;resizable=0;points=[];" vertex="1" connectable="0" parent="dvJdTB3-3XcjDnjQ-2kB-49">
          <mxGeometry x="-0.5155" y="2" relative="1" as="geometry">
            <mxPoint as="offset" />
          </mxGeometry>
        </mxCell>
        <mxCell id="dvJdTB3-3XcjDnjQ-2kB-54" value="&lt;font style=&quot;font-size: 20px;&quot;&gt;OBS&lt;/font&gt;" style="swimlane;whiteSpace=wrap;html=1;" vertex="1" parent="1">
          <mxGeometry x="720" y="572" width="200" height="200" as="geometry" />
        </mxCell>
        <mxCell id="dvJdTB3-3XcjDnjQ-2kB-55" value="" style="endArrow=classic;html=1;rounded=0;exitX=1;exitY=0.5;exitDx=0;exitDy=0;entryX=0;entryY=0.5;entryDx=0;entryDy=0;" edge="1" parent="1" source="dvJdTB3-3XcjDnjQ-2kB-39" target="dvJdTB3-3XcjDnjQ-2kB-54">
          <mxGeometry width="50" height="50" relative="1" as="geometry">
            <mxPoint x="620" y="630" as="sourcePoint" />
            <mxPoint x="670" y="580" as="targetPoint" />
          </mxGeometry>
        </mxCell>
        <mxCell id="dvJdTB3-3XcjDnjQ-2kB-56" value="&lt;div style=&quot;font-size: 16px;&quot;&gt;&lt;font style=&quot;font-size: 16px;&quot;&gt;Game Capture&lt;/font&gt;&lt;/div&gt;&lt;div style=&quot;font-size: 16px;&quot;&gt;&lt;font style=&quot;font-size: 16px;&quot;&gt;w/ Transparency&lt;/font&gt;&lt;/div&gt;" style="edgeLabel;html=1;align=center;verticalAlign=middle;resizable=0;points=[];" vertex="1" connectable="0" parent="dvJdTB3-3XcjDnjQ-2kB-55">
          <mxGeometry x="0.2264" y="-1" relative="1" as="geometry">
            <mxPoint x="-28" y="-1" as="offset" />
          </mxGeometry>
        </mxCell>
        <mxCell id="dvJdTB3-3XcjDnjQ-2kB-57" value="" style="endArrow=classic;html=1;rounded=0;entryX=0.537;entryY=-0.016;entryDx=0;entryDy=0;entryPerimeter=0;" edge="1" parent="1" source="dvJdTB3-3XcjDnjQ-2kB-58" target="dvJdTB3-3XcjDnjQ-2kB-39">
          <mxGeometry width="50" height="50" relative="1" as="geometry">
            <mxPoint x="620" y="630" as="sourcePoint" />
            <mxPoint x="670" y="580" as="targetPoint" />
            <Array as="points">
              <mxPoint x="1010" y="530" />
              <mxPoint x="407" y="530" />
            </Array>
          </mxGeometry>
        </mxCell>
        <mxCell id="dvJdTB3-3XcjDnjQ-2kB-59" value="&lt;div style=&quot;font-size: 16px;&quot;&gt;&lt;font style=&quot;font-size: 16px;&quot;&gt;VR Feed&lt;/font&gt;&lt;/div&gt;&lt;div style=&quot;font-size: 16px;&quot;&gt;&lt;font style=&quot;font-size: 16px;&quot;&gt;(RTSP)&lt;font style=&quot;font-size: 16px;&quot;&gt;&lt;br&gt;&lt;/font&gt;&lt;/font&gt;&lt;/div&gt;" style="edgeLabel;html=1;align=center;verticalAlign=middle;resizable=0;points=[];" vertex="1" connectable="0" parent="dvJdTB3-3XcjDnjQ-2kB-57">
          <mxGeometry x="0.0356" y="4" relative="1" as="geometry">
            <mxPoint as="offset" />
          </mxGeometry>
        </mxCell>
        <mxCell id="dvJdTB3-3XcjDnjQ-2kB-58" value="&lt;font style=&quot;font-size: 20px;&quot;&gt;Network Adapter&lt;br&gt;&lt;/font&gt;" style="rounded=0;whiteSpace=wrap;html=1;" vertex="1" parent="1">
          <mxGeometry x="1170" y="620" width="120" height="60" as="geometry" />
        </mxCell>
        <mxCell id="dvJdTB3-3XcjDnjQ-2kB-60" value="" style="endArrow=classic;html=1;rounded=0;entryX=0;entryY=0.75;entryDx=0;entryDy=0;" edge="1" parent="1" target="dvJdTB3-3XcjDnjQ-2kB-58">
          <mxGeometry width="50" height="50" relative="1" as="geometry">
            <mxPoint x="920" y="665" as="sourcePoint" />
            <mxPoint x="880" y="710" as="targetPoint" />
          </mxGeometry>
        </mxCell>
        <mxCell id="dvJdTB3-3XcjDnjQ-2kB-61" value="&lt;div style=&quot;font-size: 16px;&quot;&gt;&lt;font style=&quot;font-size: 16px;&quot;&gt;Dancer Feed&lt;/font&gt;&lt;/div&gt;&lt;div style=&quot;font-size: 16px;&quot;&gt;&lt;font style=&quot;font-size: 16px;&quot;&gt;(NDI)&lt;font style=&quot;font-size: 16px;&quot;&gt;&lt;br&gt;&lt;/font&gt;&lt;/font&gt;&lt;/div&gt;" style="edgeLabel;html=1;align=center;verticalAlign=middle;resizable=0;points=[];" vertex="1" connectable="0" parent="dvJdTB3-3XcjDnjQ-2kB-60">
          <mxGeometry x="-0.2941" y="-2" relative="1" as="geometry">
            <mxPoint as="offset" />
          </mxGeometry>
        </mxCell>
      </root>
    </mxGraphModel>
  </diagram>
</mxfile>
